<svg xmlns="http://www.w3.org/2000/svg" width="284.788" height="120.043" overflow="visible" xmlns:v="https://vecta.io/nano"><path fill="#a00e15" d="M282.54 43.766c-1.021-2.548-2.334-4.871-3.883-6.975l4.942-24.174c.108-.531.161-1.068.161-1.604 0-1.574-.463-3.123-1.352-4.449-1.188-1.777-3.039-3.006-5.142-3.409l-7.953-1.528a98.29 98.29 0 0 0-7.856-1.169A81.93 81.93 0 0 0 252.693 0c-5.114 0-9.892.889-14.202 2.641-4.211 1.711-7.896 4.031-10.955 6.896-.057.051-.104.107-.158.158-3.211-2.75-6.893-4.971-11.018-6.598C211.137 1.041 205.191 0 198.685 0c-6.539 0-12.483 1.055-17.668 3.131-.872.352-1.685.776-2.517 1.18-.799-.474-1.664-.836-2.596-1.012l-8.101-1.505-3.154-.587-4.624-.632c-.143-.019-.244-.029-.389-.041L155.14.163c-.137-.011-.273-.019-.411-.021l-4.458-.139-.243-.003c-3.02 0-6.13.299-9.25.887-3.359.633-6.676 1.672-9.855 3.088-3.281 1.465-6.402 3.361-9.285 5.647-.756.601-1.488 1.233-2.199 1.894-1.604-1.929-3.295-3.436-4.839-4.572C108.355 2.34 100.419.102 90.339.102c-2.752 0-5.662.066-8.651.197-.039.001-15.35.878-15.35.878-2.914.168-5.357 1.896-6.617 4.323-2.696-1.441-5.59-2.617-8.689-3.467C46.107.686 40.69 0 34.931 0l-.15.001L29.644.1l-.228.008-5.35.252-.225.015L18.72.76c-.062.004-.124.012-.187.018L7.215 1.896C3.092 2.305-.035 5.789 0 9.932l.064 7.241v62.569c0 4.148 3.17 7.609 7.305 7.973l11.295.987.192.016 4.585.304c.053.004-.318-.023-.266-.021l5.619.26c.09.004.158.008.248.008l5.031.063c7.326 0 13.889-1.101 19.502-3.271 2.045-.791 3.94-1.754 5.769-2.793 1.036 3.219 4.021 5.563 7.583 5.563h26.908c1.875 0 3.574-.671 4.938-1.75 1.257.54 2.533 1.014 3.851 1.338 2.735.671 5.777 1.012 9.043 1.012 2.23 0 4.361-.162 6.33-.483 2.035-.339 3.822-.773 5.489-1.335l4.533-1.526c5.008 2.337 10.774 3.546 17.185 3.546a64 64 0 0 0 6.643-.361 71.41 71.41 0 0 0 6.65-1.025c2.227-.455 4.436-1.027 6.568-1.702 2.275-.72 4.452-1.565 6.473-2.517l2.608-1.227c2.009 1.342 4.136 2.544 6.449 3.516 5.256 2.201 11.319 3.316 18.024 3.316 6.515 0 12.489-1.078 17.762-3.204 2.285-.921 4.436-2.054 6.466-3.346l1.698.802 4.049 1.918c.084.04.171.08.258.117a42.88 42.88 0 0 0 5.863 2.035c1.933.52 3.978.929 6.086 1.222 2.188.304 4.529.456 6.964.456 5.247 0 10.178-.908 14.655-2.703 4.326-1.732 8.152-4.08 11.375-6.978 3.402-3.054 6.082-6.61 7.969-10.57 2.007-4.216 3.021-8.593 3.021-13.014.005-4.639-.751-8.88-2.245-12.602z"/><path fill="none" stroke="#fff" stroke-linecap="round" stroke-linejoin="round" stroke-dasharray="3" d="M257.885 85.09a32.62 32.62 0 0 0 3.349-1.134c3.976-1.595 7.481-3.742 10.427-6.388 3.086-2.772 5.514-5.99 7.217-9.566 1.799-3.779 2.711-7.695 2.711-11.637 0-4.229-.68-8.066-2.02-11.409a28.56 28.56 0 0 0-3.49-6.267 3.21 3.21 0 0 1-.559-2.539l4.943-24.176c0-.004.096-.961.096-.961a4.77 4.77 0 0 0-.811-2.67c-.709-1.061-1.832-1.806-3.084-2.046l-7.953-1.528a94.21 94.21 0 0 0-7.598-1.129c-2.701-.293-5.535-.439-8.422-.439-4.697 0-9.07.81-12.996 2.404-3.841 1.562-7.191 3.664-9.962 6.256l-.162.162c-1.182 1.188-3.006 1.192-4.278.103-2.963-2.539-6.362-4.574-10.107-6.051-4.846-1.906-10.398-2.874-16.501-2.874-6.129 0-11.674.976-16.478 2.9l-1.699.789-.612.299c-.97.475-2.097.424-3.024-.127-.537-.316-1.061-.524-1.552-.615l-11.178-2.079-4.548-.62c-.006-.002-.217-.023-.217-.023l-4.498-.369c-.002 0-.24-.016-.24-.016l-4.467-.137c-.006 0-.146-.002-.146-.002-2.819 0-5.731.279-8.657.831a41.33 41.33 0 0 0-9.146 2.866c-3.034 1.354-5.929 3.113-8.599 5.23-.002.001-2.013 1.732-2.013 1.732-.649.561-1.543.875-2.397.804s-1.69-.442-2.238-1.104c-1.271-1.523-2.71-2.887-4.277-4.043C107.024 5.333 99.709 3.3 90.338 3.3c-2.703 0-5.567.065-8.512.194.027-.002-15.305.877-15.305.877-1.684.097-3.164 1.069-3.961 2.604a3.2 3.2 0 0 1-1.895 1.582c-.817.254-1.701.168-2.457-.234a38.63 38.63 0 0 0-8.023-3.204C45.537 3.845 40.402 3.2 34.93 3.2l-5.226.098c-.013 0-.141.005-.141.005l-5.348.255-.139.008-5.113.384-.109.011L7.53 5.081a4.78 4.78 0 0 0-4.328 4.778l.064 7.285v62.598c0 2.508 1.884 4.564 4.384 4.783l11.293.988c.001 0 .136.01.136.01l4.162.274.086.002 5.619.261.127.004 5.045.064c6.889 0 13.063-1.027 18.309-3.057 1.676-.648 3.373-1.473 5.339-2.59a3.2 3.2 0 0 1 2.743-.199c.896.348 1.591 1.085 1.887 2.001.643 2 2.466 3.344 4.535 3.344h26.908c1.334 0 2.342-.576 2.953-1.06a3.2 3.2 0 0 1 3.25-.43c1.279.549 2.344.922 3.351 1.17 2.485.608 5.271.918 8.276.918 2.063 0 4.02-.148 5.814-.44 1.848-.308 3.48-.703 4.984-1.21l4.535-1.527c.779-.263 1.629-.216 2.373.133 4.615 2.155 9.939 3.248 15.83 3.248 2.014 0 4.135-.117 6.307-.345 2.132-.228 4.27-.558 6.347-.979 2.117-.435 4.218-.978 6.243-1.619 2.139-.676 4.182-1.469 6.074-2.359l2.609-1.227c1.016-.479 2.207-.389 3.139.234 2.022 1.35 3.955 2.403 5.91 3.225 4.862 2.035 10.511 3.07 16.789 3.07 6.102 0 11.674-1 16.563-2.974 2.005-.81 4.006-1.845 5.943-3.078.928-.591 2.093-.663 3.086-.192l1.699.801 4.051 1.922"/><path d="M154.709 107.163c.301-.258.613-.483.94-.677s.724-.311 1.185-.346a3.43 3.43 0 0 1 1.211.125c.393.111.75.313 1.067.601s.589.672.804 1.153.347 1.08.4 1.797c.053.688.001 1.309-.152 1.86a3.87 3.87 0 0 1-.723 1.435c-.329.4-.74.721-1.238.955s-1.067.381-1.715.429c-.214.019-.435.019-.662.006a4.08 4.08 0 0 1-.574-.067l.041.399.058.579.31 4.086-2.226.545-.995-13.163 1.979-.5.29.783zm3.268 2.911c-.066-.883-.262-1.526-.581-1.924s-.728-.58-1.217-.543c-.251.02-.489.063-.714.131a3.87 3.87 0 0 0-.66.271l.395 5.216c.176.029.346.047.516.051a4.54 4.54 0 0 0 .541-.014c.283-.021.549-.068.796-.14.245-.067.425-.169.536-.298.127-.148.236-.461.332-.939s.113-1.08.056-1.811zm11.148 2.123c.188-.012.449-.078.777-.192l.04.54c-.112.12-.246.241-.399.36a3.77 3.77 0 0 1-.502.323 3.25 3.25 0 0 1-.562.234c-.192.063-.385.102-.571.114-.209.016-.387-.001-.537-.052s-.281-.111-.396-.195a1.29 1.29 0 0 1-.294-.296l-.214-.335-.53.423c-.175.14-.358.264-.554.374s-.401.203-.621.281-.465.127-.738.147c-.618.046-1.12-.11-1.506-.471s-.607-.929-.666-1.712c-.032-.412-.006-.777.077-1.094a1.74 1.74 0 0 1 .456-.808c.221-.22.511-.399.875-.532s.814-.232 1.354-.291l1.357-.139-.09-1.162c-.021-.313-.123-.537-.303-.672s-.472-.188-.877-.156c-.283.021-.609.08-.979.178s-.754.244-1.155.438l-.372-.801.832-.417c.287-.14.581-.265.883-.376a8.83 8.83 0 0 1 .91-.289 5.4 5.4 0 0 1 .928-.155c.355-.026.674-.018.955.026s.521.135.719.277a1.5 1.5 0 0 1 .476.588c.121.252.192.563.222.94l.276 3.669c.065.856.31 1.266.729 1.233zm-2.82-.164c-.012-.033-.025-.122-.047-.264l-.065-.541-.075-.746-.074-.885c-.549.041-.963.105-1.236.19s-.441.178-.503.276c-.031.037-.056.104-.067.201a2.68 2.68 0 0 0-.027.319l.002.363.021.344c.026.36.099.649.213.867a.5.5 0 0 0 .515.298 2.6 2.6 0 0 0 .697-.145c.216-.072.433-.165.646-.277zm4.543-5.676l-.875-.221-.035-.479 2.316-1.914.623-.049.129 1.389 2.414-.184-.037.89c-.178.048-.396.094-.658.142l-.75.121-.872.146.339 4.479c.021.284.092.521.209.705s.34.267.667.243l.349-.039.455-.074.461-.092.377-.087.049.653c-.18.136-.391.273-.631.418s-.496.272-.769.393a6.93 6.93 0 0 1-.829.303c-.279.08-.55.131-.809.15-.198.016-.395.012-.588-.014a1.28 1.28 0 0 1-.527-.188c-.161-.101-.292-.25-.4-.445s-.17-.455-.194-.783l-.414-5.463zm6.341-.48l-.875-.219-.035-.479 2.315-1.914.623-.048.129 1.388 2.416-.184-.038.889c-.179.049-.397.095-.658.142l-.75.122-.872.144.338 4.48c.021.284.092.519.209.706s.34.267.668.242l.348-.039.455-.073.461-.093.377-.086.051.652c-.182.135-.393.274-.633.417a7.27 7.27 0 0 1-.768.394c-.273.121-.549.223-.83.303s-.549.132-.81.15c-.198.017-.394.012-.587-.015a1.26 1.26 0 0 1-.529-.187c-.158-.103-.292-.25-.398-.444s-.17-.457-.194-.784l-.413-5.464zm9.519-1.992a3.8 3.8 0 0 1 1.117.078c.365.08.709.236 1.028.467s.604.553.858.961.455.93.617 1.559l.008.104c-.063.1-.148.192-.258.28s-.26.164-.443.233-.413.141-.686.207a10.87 10.87 0 0 1-.986.187l-2.489.382.022.338c.047.619.25 1.118.608 1.5s.862.545 1.519.494c.267-.02.543-.068.832-.146l.818-.264.704-.294.481-.25.236.565-.771.623c-.286.219-.596.417-.928.599a6.8 6.8 0 0 1-1.064.464 4.64 4.64 0 0 1-1.169.237c-.474.035-.921-.001-1.341-.11a2.66 2.66 0 0 1-1.106-.601c-.317-.288-.583-.674-.793-1.161s-.341-1.087-.396-1.803c-.062-.801-.015-1.485.142-2.057s.397-1.039.726-1.406a3.16 3.16 0 0 1 1.188-.836 5.03 5.03 0 0 1 1.526-.35zm-.978 1.431c-.058.057-.106.158-.151.305s-.082.316-.109.518c-.03.195-.049.399-.059.611s-.008.418.008.617l2.482-.305c-.043-.23-.1-.469-.171-.715s-.163-.469-.276-.668-.25-.361-.408-.488a.76.76 0 0 0-.545-.168c-.146.014-.283.041-.408.084a1.2 1.2 0 0 0-.363.209zm11.088-.228c-.178-.046-.364-.081-.567-.105s-.393-.028-.571-.015a1.66 1.66 0 0 0-.349.058 1.01 1.01 0 0 0-.281.133 1.37 1.37 0 0 0-.256.229l-.281.332.433 5.709-2.254.172-.603-7.955 2.029-.153.291 1.25.014-.001.193-.346.247-.396a4.43 4.43 0 0 1 .283-.367c.101-.11.205-.192.313-.243a2.86 2.86 0 0 1 .66-.183l.811-.092-.112 1.973zm7.227 5.65l-.401-5.328c-.036-.475-.14-.816-.306-1.028s-.435-.305-.799-.276c-.129.009-.272.037-.43.082a2.68 2.68 0 0 0-.469.187l-.459.256a3.28 3.28 0 0 0-.405.297l.455 6.026-2.256.171-.601-7.957 2.016-.151.277.913.023-.002.536-.383c.209-.144.438-.278.688-.41s.51-.245.779-.342a3.01 3.01 0 0 1 .807-.175c.303-.023.588.006.857.085a1.98 1.98 0 0 1 .725.385 2.07 2.07 0 0 1 .527.695c.137.282.221.622.251 1.019l.437 5.77-2.252.166zm9.856-8.049a6.97 6.97 0 0 1 .939-.676c.326-.193.724-.312 1.187-.346a3.42 3.42 0 0 1 1.209.123c.396.111.751.314 1.07.604.319.285.586.67.801 1.152s.349 1.081.399 1.795c.055.689.004 1.311-.149 1.863s-.396 1.029-.724 1.434a3.53 3.53 0 0 1-1.237.956c-.5.235-1.067.38-1.715.429a5.4 5.4 0 0 1-.662.006l-.575-.069.042.399.058.58.31 4.086-2.228.543-.996-13.162 1.979-.5.292.783zm3.267 2.915c-.065-.886-.262-1.526-.582-1.927a1.35 1.35 0 0 0-1.217-.542c-.25.02-.488.063-.713.133a3.9 3.9 0 0 0-.662.27l.396 5.216c.175.031.348.047.519.054s.348 0 .539-.017c.282-.021.549-.067.795-.138s.426-.17.536-.301c.128-.146.236-.461.332-.938s.114-1.082.057-1.81zm11.147 2.123c.189-.015.451-.078.779-.194l.041.54a3.28 3.28 0 0 1-.4.361 3.7 3.7 0 0 1-.502.322c-.179.094-.365.174-.561.234s-.387.101-.574.115c-.207.016-.385-.002-.535-.049a1.35 1.35 0 0 1-.396-.199 1.3 1.3 0 0 1-.293-.295c-.084-.115-.153-.229-.213-.334l-.533.422c-.172.139-.358.265-.553.373a4.38 4.38 0 0 1-.621.283 2.83 2.83 0 0 1-.738.146c-.617.047-1.119-.11-1.506-.47s-.607-.931-.666-1.713c-.031-.412-.006-.777.076-1.095s.236-.587.455-.805.514-.399.879-.534.813-.232 1.353-.29l1.356-.14-.088-1.162c-.025-.313-.125-.536-.306-.672s-.47-.188-.875-.156c-.283.021-.61.08-.979.178a6.38 6.38 0 0 0-1.154.438l-.374-.8.833-.42.882-.375c.297-.113.603-.209.912-.289a5.19 5.19 0 0 1 .928-.153c.354-.026.673-.019.954.024s.521.138.719.277a1.5 1.5 0 0 1 .477.587c.119.251.191.565.221.943l.277 3.667c.062.856.304 1.266.725 1.235zm-2.818-.166c-.011-.033-.025-.121-.045-.264l-.066-.541-.076-.746-.074-.886c-.549.042-.963.106-1.236.19s-.442.182-.502.278c-.033.038-.056.105-.068.2l-.027.318.003.365.019.342c.029.361.101.651.214.867a.5.5 0 0 0 .514.299c.246-.019.478-.065.698-.143.214-.072.433-.167.646-.279zm6.675-6.25a6.69 6.69 0 0 1 .939-.677c.326-.195.723-.31 1.186-.345.414-.032.816.011 1.209.122s.75.313 1.068.603.59.672.803 1.153.349 1.081.4 1.795c.053.688.002 1.31-.15 1.862a3.86 3.86 0 0 1-.724 1.434c-.33.405-.741.721-1.239.956s-1.067.38-1.713.429c-.217.017-.437.019-.662.006a4.82 4.82 0 0 1-.578-.066l.045.398.058.578.308 4.088-2.226.545-.995-13.166 1.977-.5.294.785zm3.268 2.912c-.066-.887-.261-1.527-.581-1.926s-.729-.58-1.219-.543a3.4 3.4 0 0 0-.712.132c-.225.068-.445.158-.661.271l.394 5.216c.176.029.348.048.518.051l.539-.013c.283-.022.552-.068.797-.14s.424-.17.537-.299c.126-.148.238-.463.33-.939s.113-1.082.058-1.81zm7.387-4.578a3.8 3.8 0 0 1 1.117.078 2.77 2.77 0 0 1 1.027.467c.32.231.605.554.857.961.252.412.459.931.617 1.561l.01.104a1.07 1.07 0 0 1-.26.277c-.109.088-.258.165-.443.236a6.95 6.95 0 0 1-.686.206c-.271.069-.602.131-.986.186l-2.49.384.025.336c.047.621.248 1.119.606 1.5s.862.545 1.519.496c.268-.021.545-.07.834-.148l.816-.264.705-.293c.214-.098.373-.182.48-.25l.237.566-.772.621c-.285.221-.596.417-.928.6a6.99 6.99 0 0 1-1.061.465c-.377.127-.768.205-1.174.236-.473.035-.92-.003-1.338-.113s-.789-.311-1.107-.598-.585-.675-.795-1.16-.34-1.089-.395-1.805c-.062-.8-.014-1.486.144-2.055.153-.571.396-1.04.722-1.406a3.22 3.22 0 0 1 1.189-.838 4.97 4.97 0 0 1 1.53-.35zm-.979 1.432c-.057.056-.107.155-.152.303a3.3 3.3 0 0 0-.109.517l-.06.613a4.85 4.85 0 0 0 .009.617l2.482-.305a7.29 7.29 0 0 0-.171-.715c-.07-.248-.162-.469-.277-.668s-.25-.36-.405-.488a.74.74 0 0 0-.545-.166c-.146.011-.283.04-.41.083a1.13 1.13 0 0 0-.362.209zm11.087-.229a4.08 4.08 0 0 0-.567-.105c-.199-.024-.392-.028-.572-.016a1.69 1.69 0 0 0-.346.06.87.87 0 0 0-.281.131c-.088.06-.172.136-.258.229l-.279.332.432 5.709-2.255.172-.601-7.957 2.028-.152.289 1.251.013-.001.195-.348.248-.394c.089-.134.184-.257.284-.364a.96.96 0 0 1 .312-.246c.191-.082.412-.142.661-.184l.81-.091-.113 1.974z" fill="#a00e15"/><path d="M29.965 12.898l-5.235.246-4.96.375-6.928.686.027 2.896v58.241l6.823.597c.003 0 4.591.307 4.591.307l4.981.217 4.81.063c5.742 0 10.752-.81 14.889-2.408 4.244-1.643 7.779-4.02 10.511-7.072 2.711-3.029 4.71-6.721 5.938-10.971 1.178-4.075 1.773-8.631 1.773-13.542 0-5.157-.793-9.666-2.354-13.399-1.597-3.813-3.89-6.992-6.816-9.449-2.889-2.425-6.376-4.207-10.367-5.3-3.822-1.048-8.102-1.579-12.718-1.579l-4.965.092zm1.401 12.04l1.28-.028c2.433 0 4.731.282 6.833.839 1.891.502 3.491 1.363 4.889 2.633 1.375 1.249 2.504 3.055 3.356 5.361.899 2.438 1.356 5.699 1.356 9.691 0 3.347-.146 6.198-.434 8.479-.275 2.194-.658 4.017-1.133 5.407-.447 1.306-.941 2.344-1.469 3.082-.521.729-1.086 1.33-1.682 1.783-1.172.873-2.585 1.461-4.289 1.78-1.973.368-4.514.556-7.553.556l-1.087-.026-1.263-.077V25.005l1.196-.067zm50.883-11.847l-10.569.604.053 3.02v59.311H89.04V55.797l.598 1.186c2.027 4.096 3.852 7.422 5.41 9.865 1.689 2.646 3.313 4.631 4.967 6.065 1.787 1.552 3.695 2.586 5.671 3.071 1.735.426 3.749.643 5.985.643 1.545 0 2.979-.105 4.269-.318 1.323-.22 2.454-.49 3.465-.83l2.179-.733v-9.121h-3.566c-1.004 0-1.939-.338-2.864-1.033-1.239-.933-2.508-2.251-3.765-3.913-1.356-1.791-2.737-3.926-4.104-6.348l-2.984-5.354c.466-.297.937-.582 1.385-.908 1.488-1.092 2.814-2.438 3.943-4.002s2.035-3.397 2.707-5.451c.672-2.066 1.013-4.471 1.013-7.148 0-6.328-2.136-11.111-6.345-14.217-3.908-2.88-9.516-4.343-16.662-4.343-2.568-.004-5.289.059-8.093.183zm6.789 12.129c1.229.017 2.328.142 3.244.392.762.207 1.359.521 1.83.959.451.416.795.998 1.051 1.771.314.967.478 2.241.478 3.791 0 1.5-.086 2.737-.255 3.678-.195 1.092-.414 1.72-.563 2.053-.241.539-.438.799-.534.904-.242.264-.479.479-.683.623-.349.241-1.037.607-2.328.963-.72.198-1.475.309-2.239.379l-.001-15.513zm54.111-11.75c-2.386.45-4.748 1.19-7.021 2.203-2.295 1.022-4.494 2.363-6.535 3.982-2.1 1.665-3.961 3.706-5.538 6.065s-2.827 5.119-3.724 8.201c-.891 3.063-1.342 6.553-1.342 10.373 0 4.616.447 8.891 1.328 12.703.92 3.991 2.432 7.48 4.492 10.374 2.129 2.989 4.932 5.345 8.328 6.997 3.354 1.63 7.414 2.456 12.068 2.456 1.68 0 3.465-.099 5.307-.292a58.82 58.82 0 0 0 5.431-.838c1.789-.367 3.562-.826 5.267-1.366 1.729-.546 3.373-1.185 4.881-1.894l1.841-.864V60.359l-4.242 1.459c-2.29.787-4.894 1.406-7.739 1.842-2.875.438-5.67.66-8.303.66-3.814 0-6.363-1.338-8.021-4.215-1.944-3.367-2.93-8.6-2.93-15.551 0-4.71.28-8.658.835-11.742.421-2.351 1.159-4.004 2.081-4.653.574-.429 1.068-.742 1.541-.986.414-.214.865-.384 1.344-.506.523-.136 1.121-.228 1.779-.272l2.701-.086c.846 0 1.97.075 3.342.227l4.357.59 4.188.743c1.51.298 2.311.521 2.719.657l3.274 1.092 3.685-14.666-6.228-1.155c-.005-.001-3.858-.513-3.858-.513l-4.248-.35-4.18-.129c-2.225 0-4.538.222-6.88.665zm42.631 1.546h0c-3.761 1.512-6.914 3.727-9.379 6.586-2.429 2.818-4.238 6.248-5.378 10.19-1.097 3.787-1.651 8.076-1.651 12.748 0 4.665.543 8.976 1.612 12.812 1.113 3.993 2.88 7.479 5.251 10.353 2.419 2.935 5.553 5.223 9.314 6.8 3.679 1.542 8.076 2.323 13.074 2.323 4.863 0 9.229-.767 12.972-2.275 3.823-1.541 7.069-3.795 9.646-6.696 2.551-2.869 4.477-6.351 5.729-10.347 1.21-3.868 1.822-8.231 1.822-12.968 0-4.698-.615-9.016-1.83-12.829-1.252-3.938-3.172-7.358-5.705-10.165-2.563-2.84-5.791-5.037-9.592-6.537-3.718-1.462-8.084-2.205-12.979-2.205-4.902-.001-9.244.743-12.906 2.21zm7.387 47.611l-.002-.001c-1.394-.794-2.485-1.907-3.34-3.405-.949-1.66-1.645-3.701-2.066-6.07-.45-2.539-.68-5.435-.68-8.607 0-5.198.262-9.34.774-12.311.604-3.496 1.415-4.186 1.423-4.192.813-.646 2.021-1.171 3.6-1.563 1.771-.442 3.723-.666 5.803-.666 2.154 0 4.002.385 5.488 1.144 1.463.747 2.644 1.812 3.604 3.251 1.026 1.542 1.804 3.5 2.304 5.814.538 2.49.812 5.358.812 8.523 0 2.227-.068 4.421-.207 6.521-.136 2.049-.345 3.925-.63 5.578-.271 1.568-.6 2.887-.979 3.916-.24.659-.406.877-.445.928-1.025.689-2.271 1.246-3.754 1.666-1.572.443-3.676.671-6.254.671-2.228-.002-4.062-.405-5.451-1.197zm50.145-48.124c-2.754 1.117-5.116 2.591-7.024 4.378-1.916 1.795-3.406 3.805-4.428 5.971-1.054 2.229-1.59 4.422-1.59 6.518 0 3.954.795 7.264 2.357 9.834 1.49 2.443 3.384 4.48 5.634 6.051 2.098 1.467 4.396 2.678 6.829 3.602a122.73 122.73 0 0 1 5.978 2.436c1.572.691 2.877 1.5 3.876 2.402.389.353.836.918.836 2.195 0 2.088-.287 3.293-.529 3.938-.162.431-.271.589-.322.656-.506.218-1.079.398-1.731.527-.702.143-1.673.213-2.881.213h0c-1.021 0-2.188-.147-3.471-.438a37.72 37.72 0 0 1-4.195-1.206c-1.397-.491-2.698-1.021-3.866-1.576-1.131-.537-2.021-1.027-2.646-1.456l-3.543-2.423-4.855 15.109 6.184 2.926c1.308.564 2.697 1.048 4.125 1.432 1.414.38 2.933.684 4.519.902 1.604.223 3.354.336 5.205.336 3.61 0 6.938-.602 9.896-1.785 2.926-1.173 5.475-2.727 7.578-4.613 2.139-1.924 3.811-4.129 4.967-6.555 1.179-2.48 1.777-5.006 1.777-7.508 0-2.998-.449-5.635-1.332-7.838-.881-2.191-2.072-4.098-3.539-5.663-1.414-1.507-3.043-2.79-4.836-3.82-1.64-.937-3.343-1.774-5.066-2.494-.002 0-4.786-1.922-4.786-1.922-1.356-.522-2.573-1.103-3.615-1.719-.854-.507-1.532-1.075-2.017-1.692-.104-.133-.418-.531-.418-1.561 0-1.061.104-1.946.316-2.635.053-.17.092-.252.12-.301a2.8 2.8 0 0 1 1.115-.38c.774-.089 1.638-.132 2.565-.132a25.18 25.18 0 0 1 2.862.191l3.524.545 3.568.807c1.129.297 2.144.61 3.016.938l3.509 1.314 3.104-15.191-3.182-.611a83.3 83.3 0 0 0-6.818-1.012c-2.359-.258-4.846-.387-7.388-.387-3.453-.001-6.61.569-9.382 1.697z" fill="none" stroke="#fff"/><path d="M16.071 17.104l3.996-.396 4.854-.367 5.158-.243 4.854-.092c4.355 0 8.313.488 11.872 1.464s6.612 2.53 9.155 4.664 4.518 4.878 5.92 8.232 2.106 7.409 2.106 12.165c0 4.635-.55 8.852-1.649 12.652s-2.848 7.043-5.248 9.726-5.493 4.758-9.277 6.222-8.363 2.193-13.734 2.193a195.07 195.07 0 0 1-4.729-.061c-1.647-.041-3.267-.113-4.853-.214l-4.578-.305a98.72 98.72 0 0 1-3.845-.335l-.002-55.305h0zm10.903 50.13c.366.082.793.154 1.278.215a32.9 32.9 0 0 0 1.526.15 50.19 50.19 0 0 0 1.522.094 28.72 28.72 0 0 0 1.222.029c3.251 0 5.965-.203 8.142-.608s4.055-1.201 5.642-2.382c.853-.649 1.636-1.475 2.347-2.473s1.342-2.299 1.891-3.904.977-3.623 1.281-6.043.459-5.381.459-8.881c0-4.394-.521-7.994-1.557-10.802s-2.439-5.014-4.208-6.621-3.843-2.726-6.22-3.356-4.93-.945-7.653-.945c-.408 0-.875.011-1.403.031a40.35 40.35 0 0 0-1.586.091 34.24 34.24 0 0 0-1.523.153l-1.158.15-.002 45.102h0zM89.5 49.616h-3.666v23.208H74.932V16.715l7.457-.427 7.947-.183c6.48 0 11.4 1.238 14.764 3.719s5.044 6.357 5.044 11.64c0 2.356-.287 4.408-.854 6.154s-1.324 3.272-2.261 4.571-2.017 2.396-3.235 3.291c-1.225.895-2.506 1.646-3.851 2.256l4.552 8.166c1.444 2.561 2.892 4.795 4.336 6.705s2.908 3.423 4.396 4.539 3.08 1.677 4.788 1.677h.365v3.618c-.854.289-1.84.521-2.959.707s-2.369.275-3.752.275c-1.994 0-3.733-.185-5.221-.549s-2.932-1.16-4.336-2.381-2.859-3.014-4.367-5.372-3.258-5.556-5.252-9.587L89.5 49.616zm-1.72-5.6c1.5 0 2.948-.189 4.346-.576s2.502-.858 3.313-1.426c.404-.281.811-.646 1.215-1.091s.77-1.028 1.096-1.758c.321-.728.586-1.656.789-2.789s.303-2.546.303-4.243c0-1.898-.211-3.496-.637-4.789s-1.063-2.335-1.916-3.123-1.901-1.354-3.158-1.695-2.695-.518-4.313-.518c-.446 0-.942.01-1.491.031s-1.041.07-1.486.148v21.826h1.941v.003zm57.428 29.608c-4.188 0-7.746-.712-10.67-2.133s-5.299-3.416-7.121-5.976-3.149-5.641-3.979-9.238-1.245-7.592-1.245-11.981c0-3.536.403-6.692 1.214-9.479s1.914-5.225 3.312-7.318 3.021-3.871 4.865-5.335a27.24 27.24 0 0 1 5.849-3.565 28.42 28.42 0 0 1 6.313-1.982c2.155-.405 4.248-.608 6.284-.608 1.259 0 2.591.041 3.994.123s2.767.193 4.088.336a74.85 74.85 0 0 1 3.692.489c1.138.181 2.072.357 2.805.52l-2.013 8.017c-.731-.245-1.771-.498-3.112-.765a113.59 113.59 0 0 0-4.301-.763 90.07 90.07 0 0 0-4.514-.608c-1.485-.164-2.717-.246-3.691-.246-1.1 0-2.075.031-2.93.094a13.53 13.53 0 0 0-2.348.363c-.713.184-1.384.438-2.014.763a13.71 13.71 0 0 0-1.923 1.217c-1.667 1.179-2.796 3.414-3.386 6.702s-.885 7.395-.885 12.309c0 7.555 1.117 13.271 3.356 17.15s5.836 5.816 10.796 5.816c2.809 0 5.736-.231 8.786-.697s5.813-1.126 8.297-1.979v4.694c-1.383.649-2.877 1.229-4.483 1.738a48.39 48.39 0 0 1-4.941 1.28 55.26 55.26 0 0 1-5.124.793c-1.727.176-3.387.269-4.971.269zM225.59 44.54c0 4.433-.561 8.435-1.68 12.012s-2.807 6.636-5.063 9.177-5.073 4.492-8.45 5.854-7.3 2.042-11.773 2.042c-4.596 0-8.541-.692-11.836-2.071s-5.986-3.344-8.082-5.886-3.641-5.599-4.639-9.177-1.492-7.561-1.492-11.95.506-8.341 1.524-11.858 2.593-6.513 4.728-8.992 4.851-4.379 8.146-5.701 7.199-1.981 11.713-1.981 8.45.661 11.807 1.981 6.149 3.223 8.387 5.701 3.916 5.477 5.033 8.992 1.677 7.467 1.677 11.857zm-11.504.002c0-3.413-.295-6.479-.883-9.201s-1.514-5.026-2.771-6.914-2.862-3.331-4.813-4.325-4.265-1.494-6.943-1.494c-2.354 0-4.547.256-6.578.762s-3.635 1.229-4.813 2.165-2.039 2.985-2.588 6.153-.82 7.453-.82 12.854c0 3.37.242 6.427.729 9.168s1.301 5.108 2.438 7.099 2.648 3.524 4.537 4.601 4.231 1.614 7.035 1.614c2.883 0 5.258-.264 7.127-.791s3.45-1.239 4.75-2.135c.607-.406 1.137-1.217 1.584-2.438s.821-2.711 1.127-4.479.525-3.736.67-5.908a103.97 103.97 0 0 0 .212-6.731zm54.698 11.823c0 2.033-.488 4.076-1.465 6.131s-2.385 3.902-4.217 5.548-4.043 2.989-6.628 4.024-5.489 1.556-8.706 1.556c-1.712 0-3.301-.103-4.766-.304a34.04 34.04 0 0 1-4.125-.823c-1.281-.345-2.515-.772-3.694-1.281l-3.539-1.678 2.683-8.353c.772.528 1.801 1.096 3.082 1.705s2.674 1.178 4.18 1.705a41.37 41.37 0 0 0 4.549 1.31c1.527.345 2.917.517 4.179.517 1.423 0 2.593-.091 3.509-.273s1.738-.438 2.471-.762c.814-.326 1.467-1.14 1.953-2.438s.733-2.987.733-5.063c0-1.91-.632-3.434-1.894-4.572s-2.838-2.121-4.73-2.955l-6.131-2.5a28.01 28.01 0 0 1-6.133-3.229c-1.893-1.319-3.469-3.019-4.729-5.09s-1.893-4.797-1.893-8.171c0-1.626.427-3.342 1.281-5.151s2.095-3.476 3.722-4.998 3.642-2.774 6.042-3.751 5.124-1.462 8.176-1.462c2.438 0 4.788.121 7.045.365l6.559.974-1.707 8.35c-.978-.367-2.084-.711-3.326-1.037l-3.781-.854-3.752-.582c-1.223-.143-2.3-.214-3.234-.214-1.056 0-2.033.052-2.927.153s-1.71.375-2.44.82c-.69.406-1.19 1.108-1.494 2.105s-.456 2.188-.456 3.568c0 1.422.364 2.603 1.099 3.537s1.702 1.757 2.903 2.468 2.565 1.364 4.096 1.953l4.706 1.89a42.55 42.55 0 0 1 4.705 2.316 17.72 17.72 0 0 1 4.096 3.231c1.2 1.283 2.17 2.839 2.902 4.667s1.096 4.049 1.096 6.648z" fill="#fff"/><g stroke="#fff"><path fill="#a00e15" stroke-width=".5" d="M196.448 97.076c1.771-.254 3.057-1.51 2.871-2.807s-1.771-2.14-3.544-1.887-59.616 9.612-59.431 10.908 58.33-5.96 60.104-6.214zm-1.162-3.74c1.159-.166 2.194.362 2.313 1.182s-.729 1.615-1.887 1.781-2.194-.361-2.313-1.18.726-1.617 1.887-1.783z"/><g fill="none" stroke-linecap="round" stroke-linejoin="round"><path d="M196.676 94.518c-4.666 3.215 57.348-9.428 61.209-9.428"/><path d="M199.833 93.146c19.571-4.041 30.068 5.44 63.908-.69"/></g></g></svg>