<?xml version="1.0" encoding="utf-8"?>
<!-- Generator: Adobe Illustrator 26.0.0, SVG Export Plug-In . SVG Version: 6.00 Build 0)  -->
<svg version="1.1" id="Layer_1" xmlns="http://www.w3.org/2000/svg" xmlns:xlink="http://www.w3.org/1999/xlink" x="0px" y="0px"
	 viewBox="0 0 1400 550" style="enable-background:new 0 0 1400 550;" xml:space="preserve">
<style type="text/css">
	.st0{fill-rule:evenodd;clip-rule:evenodd;fill:#F15A28;}
</style>
<path id="BoLS" class="st0" d="M360.9,258.6c4.1-4.5,7.4-9.7,9.9-15.2c3.1-6.8,5.4-14,7-21.3c1.9-9.2,2.8-18.5,2.7-27.8
	c0-16.1-2.1-30.2-6.3-42.3s-10.2-22.2-18-30.5c-7.8-8.2-17.5-14.5-28.2-18.4c-11-4-23.3-6-36.9-6H140.5l-47.6,91.4h201.2
	c4.9,0,9.7,1.7,13.6,4.7c4.1,3.2,6.1,9.1,6.1,17.9c0,9.1-2,15.3-5.9,18.6c-3.8,3.3-8.7,5.1-13.8,5H92.9v213.8h199.9
	c17.9,0,32.8-2.6,44.7-7.9c11.9-5.3,21.4-12.4,28.4-21.5c7.2-9.6,12.3-20.6,15-32.3c3-13.4,4.5-27,4.4-40.7c0-21-3.5-38.2-10.4-51.5
	c-6.9-13.3-15.4-22.2-25.3-26.8C353.8,265.4,357.6,262.3,360.9,258.6z M293.1,309.8c7.7,0,13.3,2,16.7,6c3.4,4,5.1,9.9,5.1,17.6
	c0,8.1-1.7,14.2-5.1,18.4c-3.4,4.2-9,6.3-16.7,6.3H163.6v-48.3H293.1z M468.5,210.9c-20.9,22-31.4,56.8-31.4,104.3
	c0,47.8,10.4,82.6,31.3,104.7c20.9,22,52.4,33,94.6,33c42.1,0,73.6-11,94.5-33c20.9-22,31.4-56.9,31.4-104.7
	c0-47.5-10.5-82.2-31.5-104.3c-21-22-52.5-33-94.4-33C520.9,177.9,489.4,188.9,468.5,210.9L468.5,210.9z M529,381.1
	c-9.3-1.7-16.8-5.1-22.5-10.1c-5.8-5-9.9-12-12.5-20.9c-2.6-8.9-3.9-20.5-3.9-34.8s1.3-25.9,3.9-34.8c2.6-8.9,6.7-15.8,12.5-20.7
	c5.8-4.9,13.3-8.2,22.5-9.9c9.3-1.7,20.6-2.6,34-2.6s24.7,0.9,34,2.6c9.3,1.7,16.8,5,22.5,9.9c5.8,4.9,9.9,11.8,12.5,20.7
	c2.6,8.9,3.9,20.5,3.9,34.8c0,14.3-1.3,25.9-3.9,34.8c-2.6,8.9-6.7,15.9-12.5,20.9c-5.8,5-13.3,8.4-22.5,10.1
	c-9.3,1.7-20.6,2.6-34,2.6S538.2,382.8,529,381.1z M811.5,358.2V97.1h-70.4v351.4h200.9l45.6-90.3L811.5,358.2L811.5,358.2z
	 M1098.1,237.4c-8.2,0-14.2-1.8-18.2-5.5c-4-3.7-6-10.1-5.9-19.2c0-9.1,2-15.4,5.9-18.9c4-3.5,10-5.3,18.2-5.3h157.7l45.2-91.4
	h-197.5c-17.2,0-32,2.6-44.3,7.9c-11.7,4.8-22.1,12.4-30.3,22.1c-7.8,9.5-13.6,20.9-17.3,34.4s-5.6,28.5-5.6,44.9
	c-0.1,13.9,1.6,27.8,5.1,41.2c3.4,12.4,8.6,23,15.6,31.8c7.1,8.8,16.2,15.8,26.5,20.5c10.6,4.9,23.3,7.4,38.1,7.4H1215
	c8.4,0,14.5,1.9,18.3,5.8c3.9,3.9,5.8,10.3,5.8,19.4c0,9.1-1.9,15.7-5.8,19.7c-3.9,4-10,6-18.3,6h-172l-45.2,90.3h211.8
	c17.2,0,32-2.6,44.4-7.9c11.9-4.9,22.3-12.7,30.4-22.6c7.9-9.8,13.7-21.9,17.3-36.2c3.6-14.4,5.4-30.5,5.4-48.3
	c0-32.2-7.2-56.3-21.8-72.2c-14.5-15.9-35.7-23.9-63.6-23.9L1098.1,237.4L1098.1,237.4z"/>
</svg>
